<?xml version="1.0" encoding="UTF-8"?>
<svg xmlns="http://www.w3.org/2000/svg" xmlns:xlink="http://www.w3.org/1999/xlink" viewBox="0 0 60 60" width="60px" height="60px">
<g id="surface4280055">
<path style=" stroke:none;fill-rule:nonzero;fill:rgb(32.549021%,83.529413%,72.941178%);fill-opacity:1;" d="M 30 6 C 16.800781 6 6 16.800781 6 30 C 6 43.199219 16.800781 54 30 54 C 43.199219 54 54 43.199219 54 30 C 54 16.800781 43.199219 6 30 6 Z M 39.460938 42 C 39.023438 42 38.800781 41.78125 38.363281 41.558594 C 35.0625 39.578125 30.882812 38.480469 26.480469 38.480469 C 24.0625 38.480469 21.421875 38.921875 19.222656 39.359375 C 18.78125 39.359375 18.34375 39.578125 18.121094 39.578125 C 17.242188 39.578125 16.582031 38.921875 16.582031 38.039062 C 16.582031 37.160156 17.023438 36.5 17.902344 36.5 C 20.761719 35.839844 23.625 35.398438 26.703125 35.398438 C 31.765625 35.398438 36.382812 36.71875 40.34375 38.921875 C 40.785156 39.359375 41.222656 39.578125 41.222656 40.460938 C 40.78125 41.558594 40.121094 42 39.460938 42 Z M 41.878906 35.84375 C 41.441406 35.84375 41 35.621094 40.558594 35.402344 C 36.820312 32.980469 31.539062 31.660156 25.820312 31.660156 C 22.960938 31.660156 20.316406 32.101562 18.339844 32.542969 C 17.898438 32.761719 17.679688 32.761719 17.238281 32.761719 C 16.140625 32.761719 15.476562 31.882812 15.476562 31 C 15.476562 29.898438 15.917969 29.460938 17.019531 29.019531 C 19.65625 28.359375 22.300781 27.699219 26.039062 27.699219 C 32.199219 27.699219 37.921875 29.238281 42.761719 32.097656 C 43.421875 32.539062 43.863281 33.199219 43.863281 33.859375 C 43.640625 34.960938 42.980469 35.84375 41.878906 35.84375 Z M 44.738281 28.800781 C 44.300781 28.800781 44.078125 28.578125 43.421875 28.359375 C 39.019531 25.941406 32.640625 24.398438 26.480469 24.398438 C 23.398438 24.398438 20.101562 24.839844 17.238281 25.5 C 16.796875 25.5 16.578125 25.71875 15.917969 25.71875 C 14.597656 25.941406 13.71875 24.839844 13.71875 23.523438 C 13.71875 22.203125 14.378906 21.539062 15.257812 21.320312 C 18.78125 20.441406 22.519531 20 26.480469 20 C 33.300781 20 40.339844 21.539062 45.84375 24.398438 C 46.503906 24.839844 47.160156 25.5 47.160156 26.601562 C 46.941406 27.921875 46.058594 28.800781 44.738281 28.800781 Z M 44.738281 28.800781 "/>
</g>
</svg>
